<?xml version="1.0" encoding="UTF-8"?>
<svg xmlns="http://www.w3.org/2000/svg" viewBox="0 0 144 144" role="img" aria-label="Bodycare placeholder">
  <defs>
    <linearGradient id="g" x1="0" y1="0" x2="1" y2="1">
      <stop offset="0%" stop-color="#ecfdf5"/>
      <stop offset="100%" stop-color="#d1fae5"/>
    </linearGradient>
  </defs>
  <rect width="144" height="144" fill="url(#g)"/>
  <path d="M72 28c-14 8-18 22-12 34 8-4 14-12 16-22 6 2 10 6 12 12-10-2-18 2-24 10 10-16 26-24 42-24-8 6-12 14-12 22 6-4 12-4 18 0-8 10-20 16-32 16 12-8 20-20 24-34Z" fill="#059669" opacity="0.75"/>
  <text x="72" y="112" text-anchor="middle" font-family="Segoe UI, Apple SD Gothic Neo, Malgun Gothic, sans-serif" font-size="11" font-weight="700" fill="#059669" opacity="0.9">Bodycare</text>
</svg>
